<svg fill-rule="evenodd" height="342" image-rendering="optimizeQuality" shape-rendering="geometricPrecision" text-rendering="geometricPrecision" viewBox="0 0 599 342" width="600" xmlns="http://www.w3.org/2000/svg"><path d="m-.5 0h600v342h-600z" fill="#da251d" stroke-width="1.732051"/><path d="m-.5 114h600v228h-600z" stroke-width="1.414214"/><path d="m240 200h107v7h-107z" fill="#ffd400"/><path d="m345 195 21-20-23 10 17-24-23 8 10-24-22 12 6-24-20 17 1-24-11 21-7-24-8 24-11-21 1 24-19-17 5 24-22-12 11 24-23-8 17 24-24-9 21 19z" fill="#ffd400"/><path d="m-.5 228h600v114h-600z" fill="#009a3f"/></svg>