<?xml version="1.0" encoding="UTF-8" standalone="no"?>
<!-- Created with Inkscape (http://www.inkscape.org/) -->
<svg
   xmlns:dc="http://purl.org/dc/elements/1.1/"
   xmlns:cc="http://creativecommons.org/ns#"
   xmlns:rdf="http://www.w3.org/1999/02/22-rdf-syntax-ns#"
   xmlns:svg="http://www.w3.org/2000/svg"
   xmlns="http://www.w3.org/2000/svg"
   xmlns:sodipodi="http://sodipodi.sourceforge.net/DTD/sodipodi-0.dtd"
   xmlns:inkscape="http://www.inkscape.org/namespaces/inkscape"
   width="75"
   height="50"
   id="svg2"
   version="1.0"
   inkscape:version="0.46"
   sodipodi:docname="Javanese ca.svg"
   sodipodi:version="0.32"
   inkscape:output_extension="org.inkscape.output.svg.inkscape">
  <defs
     id="defs4">
    <inkscape:perspective
       sodipodi:type="inkscape:persp3d"
       inkscape:vp_x="0 : 25 : 1"
       inkscape:vp_y="0 : 1000 : 0"
       inkscape:vp_z="100 : 25 : 1"
       inkscape:persp3d-origin="50 : 16.666667 : 1"
       id="perspective35" />
  </defs>
  <sodipodi:namedview
     id="base"
     pagecolor="#ffffff"
     bordercolor="#666666"
     borderopacity="1.0"
     inkscape:pageopacity="0.0"
     inkscape:pageshadow="2"
     inkscape:zoom="3.959798"
     inkscape:cx="72.261622"
     inkscape:cy="-42.939337"
     inkscape:document-units="px"
     inkscape:current-layer="text2985"
     showgrid="false"
     inkscape:window-width="880"
     inkscape:window-height="669"
     inkscape:window-x="25"
     inkscape:window-y="25"
     inkscape:window-maximized="0"
     showguides="true"
     inkscape:guide-bbox="true">
    <sodipodi:guide
       orientation="0,1"
       position="30.557114,46.08821"
       id="guide2984" />
    <sodipodi:guide
       orientation="0,1"
       position="76.140248,14.015867"
       id="guide2990" />
    <sodipodi:guide
       orientation="1,0"
       position="10.006824,50.065686"
       id="guide2992" />
    <sodipodi:guide
       orientation="1,0"
       position="65,48.058036"
       id="guide2994" />
  </sodipodi:namedview>
  <metadata
     id="metadata7">
    <rdf:RDF>
      <cc:Work
         rdf:about="">
        <dc:format>image/svg+xml</dc:format>
        <dc:type
           rdf:resource="http://purl.org/dc/dcmitype/StillImage" />
        <dc:title />
      </cc:Work>
    </rdf:RDF>
  </metadata>
  <g
     inkscape:label="Layer 1"
     inkscape:groupmode="layer"
     id="layer1"
     transform="translate(0,-1002.3622)">
    <g
       style="font-size:40px;font-style:normal;font-variant:normal;font-weight:normal;font-stretch:normal;line-height:125%;letter-spacing:0px;word-spacing:0px;fill:#000000;fill-opacity:1;stroke:none;font-family:Tuladha Jejeg;-inkscape-font-specification:Tuladha Jejeg"
       id="text2985"
       transform="translate(1.1301211,1.0714286)">
      <path
         style="text-align:center;line-height:125%;text-anchor:middle;fill:#000000;font-family:Sans"
         d="M 14.876846,1038.1497 C 13.783086,1037.5116 12.905808,1036.8337 12.24501,1036.116 C 11.584195,1035.3982 11.0715,1034.5836 10.706924,1033.6721 C 10.342334,1032.7607 10.09738,1031.7296 9.9720612,1030.5789 C 9.8467294,1029.4281 9.7840667,1028.1008 9.7840729,1026.5969 L 9.7840729,1014.9758 C 9.7840667,1013.4036 9.983448,1012.0193 10.382217,1010.823 C 10.780973,1009.6267 11.322151,1008.6241 12.005753,1007.8152 C 12.689337,1007.0063 13.486862,1006.4025 14.398331,1006.0037 C 15.309777,1005.6049 16.278201,1005.4055 17.303604,1005.4055 L 22.08876,1005.4055 C 24.344599,1005.4055 26.047885,1006.0265 27.198624,1007.2683 C 28.349315,1008.5102 28.924673,1010.3958 28.924698,1012.925 L 28.924698,1022.1877 C 30.47415,1022.5523 31.81855,1023.1106 32.957901,1023.8625 C 34.097193,1024.6145 35.122583,1025.4576 36.034073,1026.3918 C 36.945498,1027.3261 37.760113,1028.2888 38.477921,1029.28 C 39.195658,1030.2712 39.907735,1031.177 40.614151,1031.9973 C 41.320494,1032.8176 42.043963,1033.4898 42.784561,1034.0139 C 43.525081,1034.538 44.373876,1034.8001 45.330948,1034.8 C 46.196791,1034.8001 46.93735,1034.6918 47.552628,1034.4753 C 48.167817,1034.2589 48.663422,1033.8943 49.039444,1033.3816 C 49.415375,1032.8689 49.688812,1032.1739 49.859756,1031.2966 C 50.030609,1030.4194 50.116058,1029.3085 50.116104,1027.9641 L 50.116104,1020.4446 C 50.116058,1017.9609 49.956553,1015.9272 49.637589,1014.3435 C 49.318532,1012.7599 48.748872,1011.5066 47.928604,1010.5837 C 47.108248,1009.6609 45.991713,1009.0229 44.578995,1008.6697 C 43.166195,1008.3165 41.366066,1008.1399 39.178604,1008.1399 L 39.178604,1005.4055 L 54.90126,1005.4055 C 56.154463,1005.4055 57.288088,1005.5651 58.302139,1005.884 C 59.316081,1006.2031 60.176269,1006.6987 60.882706,1007.3708 C 61.589028,1008.0431 62.135902,1008.8976 62.523331,1009.9343 C 62.910641,1010.9711 63.104326,1012.1959 63.104385,1013.6086 L 63.104385,1037.5344 L 56.952042,1037.5344 L 56.952042,1013.6086 C 56.951988,1012.6061 56.826663,1011.7573 56.576065,1011.0623 C 56.325361,1010.3673 55.960778,1009.8033 55.482315,1009.3704 C 55.003748,1008.9374 54.428391,1008.6241 53.756241,1008.4304 C 53.083991,1008.2368 52.326342,1008.1399 51.483292,1008.1399 L 49.637589,1008.1399 C 50.845224,1009.2792 51.682625,1010.8458 52.149796,1012.8396 C 52.616869,1014.8334 52.85043,1017.3684 52.850479,1020.4446 L 52.850479,1027.9641 C 52.85043,1030.0605 52.679532,1031.7695 52.337784,1033.0911 C 51.995939,1034.4127 51.517423,1035.4552 50.902237,1036.2185 C 50.286956,1036.9819 49.563487,1037.5059 48.731827,1037.7908 C 47.900077,1038.0756 46.994316,1038.218 46.014542,1038.218 C 44.624527,1038.218 43.416846,1037.9503 42.391495,1037.4148 C 41.366066,1036.8793 40.437519,1036.1957 39.60585,1035.364 C 38.774109,1034.5323 37.993674,1033.6038 37.264542,1032.5784 C 36.535342,1031.553 35.7663,1030.5504 34.957413,1029.5706 C 34.148463,1028.5907 33.265489,1027.6964 32.308487,1026.8875 C 31.351428,1026.0785 30.223499,1025.469 28.924698,1025.0588 L 28.924698,1030.6985 C 28.924673,1032.134 28.793651,1033.336 28.531631,1034.3044 C 28.269563,1035.2729 27.910676,1036.0476 27.454971,1036.6287 C 26.999219,1037.2097 26.458041,1037.6199 25.831436,1037.8591 C 25.204787,1038.0984 24.526891,1038.218 23.797745,1038.218 C 22.065955,1038.218 20.66459,1037.5914 19.593643,1036.3381 C 18.522665,1035.0849 17.987184,1033.205 17.987198,1030.6985 C 17.987184,1028.3743 18.437216,1026.5229 19.337296,1025.1443 C 20.237344,1023.7657 21.382362,1022.8144 22.772354,1022.2903 L 22.772354,1012.925 C 22.772335,1011.2845 22.396359,1010.0768 21.644424,1009.302 C 20.892454,1008.5273 19.901244,1008.1399 18.670792,1008.1399 L 17.303604,1008.1399 C 16.688357,1008.1399 16.090213,1008.2596 15.509171,1008.4988 C 14.928105,1008.7381 14.41541,1009.1311 13.971085,1009.678 C 13.526739,1010.2249 13.173549,1010.9313 12.911514,1011.7971 C 12.649461,1012.663 12.518439,1013.7226 12.518448,1014.9758 L 12.518448,1026.5969 C 12.518439,1027.8502 12.558315,1028.9496 12.638077,1029.8953 C 12.71782,1030.8409 12.888719,1031.6783 13.150772,1032.4075 C 13.412807,1033.1366 13.788783,1033.7747 14.278702,1034.3215 C 14.768599,1034.8684 15.42371,1035.3811 16.244034,1035.8596 L 14.876846,1038.1497 z M 22.772354,1025.2981 C 22.111528,1025.7538 21.60453,1026.426 21.251358,1027.3147 C 20.898151,1028.2034 20.721556,1029.3313 20.721573,1030.6985 C 20.721556,1031.6555 20.858274,1032.3505 21.131729,1032.7834 C 21.405149,1033.2164 21.724159,1033.4329 22.08876,1033.4329 C 22.339393,1033.4329 22.515988,1033.2392 22.618546,1032.8518 C 22.721066,1032.4644 22.772335,1031.7467 22.772354,1030.6985 L 22.772354,1025.2981 z"
         id="text2989" />
    </g>
  </g>
</svg>
